<svg height="512pt" viewBox="0 0 512 512" width="512pt" xmlns="http://www.w3.org/2000/svg"><path d="m241 30.328125h30v95.433594h-30zm0 0" fill="#08f"/><path d="m256 30.328125h15v95.433594h-15zm0 0" fill="#006ef4"/><path d="m241 0h106.113281v85.332031h-106.113281zm0 0" fill="#e60020"/><path d="m241 42.667969h106.113281v42.667969h-106.113281zm0 0" fill="#c1001b"/><path d="m0 296.378906h169.753906v215.621094h-169.753906zm0 0" fill="#ffdaa8"/><path d="m32.628906 332h30v30h-30zm0 0" fill="#08f"/><path d="m77.960938 332h30v30h-30zm0 0" fill="#08f"/><path d="m342.246094 296.378906h169.753906v215.621094h-169.753906zm0 0" fill="#ffc373"/><path d="m407.6875 332h30v30h-30zm0 0" fill="#006ef4"/><path d="m453.019531 332h30v30h-30zm0 0" fill="#006ef4"/><path d="m372.25 206.230469v305.769531h-232.5v-305.769531l116.25-100.28125zm0 0" fill="#fff4ca"/><path d="m372.25 206.230469v305.769531h-116.25v-406.050781zm0 0" fill="#ffdaa8"/><path d="m307.078125 256.421875c0 28.15625-22.90625 51.078125-51.078125 51.078125s-51.078125-22.921875-51.078125-51.078125c0-28.171875 22.90625-51.09375 51.078125-51.09375s51.078125 22.921875 51.078125 51.09375zm0 0" fill="#ffaf12"/><path d="m199 389.191406h114v122.808594h-114zm0 0" fill="#08f"/><path d="m256 389.191406h57v122.808594h-57zm0 0" fill="#006ef4"/><path d="m307.078125 256.421875c0 28.15625-22.90625 51.078125-51.078125 51.078125v-102.171875c28.171875 0 51.078125 22.921875 51.078125 51.09375zm0 0" fill="#f80"/></svg>