<svg id="Capa_1" enable-background="new 0 0 512 512" height="512" viewBox="0 0 512 512" width="512" xmlns="http://www.w3.org/2000/svg"><g><path d="m236.646 190.708-25.479 50.959c-2.005 4.01-2.111 8.706-.29 12.803l3.793 8.53 22.623 50.908c1.724 3.878 1.723 8.306 0 12.184l-32.003 72.001c-2.408 5.417-7.779 8.908-13.707 8.908h-146.583c-24.853 0-45-20.147-45-45v-99s23-15 23-47-23-47.001-23-47.001v-19c0-24.853 20.147-45 45-45h146.229c5.682 0 10.876 3.21 13.416 8.292l32 64c2.112 4.223 2.112 9.193.001 13.416z" fill="#ffe278"/><path d="m489 216c0 32 23 47 23 47v99c0 24.853-20.147 45-45 45h-178.58c-10.854 0-18.115-11.172-13.708-21.091l26.581-59.817c1.723-3.878 1.723-8.305 0-12.183l-22.623-50.909-3.793-8.53c-1.822-4.096-1.715-8.793.29-12.803l25.479-50.959c2.111-4.223 2.111-9.193 0-13.416l-25.292-50.584c-4.987-9.973 2.266-21.708 13.417-21.708h178.229c24.853 0 45 20.147 45 45v19s-23 15-23 47z" fill="#ffe278"/><path d="m489 216c0 32 23 47 23 47v99c0 24.853-20.147 45-45 45h-178.58c-10.854 0-18.115-11.172-13.708-21.091l26.581-59.817c1.723-3.878 1.723-8.305 0-12.183l-22.623-50.909-3.793-8.53c-1.822-4.096-1.715-8.793.29-12.803l25.479-50.959c2.111-4.223 2.111-9.193 0-13.416l-25.292-50.584c-4.987-9.973 2.266-21.708 13.417-21.708h178.229c24.853 0 45 20.147 45 45v19s-23 15-23 47z" fill="#ffb454"/><path d="m160 335h-80c-8.284 0-15-6.716-15-15s6.716-15 15-15h80c8.284 0 15 6.716 15 15s-6.716 15-15 15z" fill="#ffb454"/><path d="m236.646 190.708-25.479 50.959c-2.005 4.01-2.111 8.706-.29 12.803l3.793 8.53h-214.67v-94h232.5l4.146 8.292c2.111 4.223 2.111 9.193 0 13.416z" fill="#8bb9ff"/><path d="m512 169v94h-233.33l-3.793-8.53c-1.822-4.096-1.715-8.793.29-12.803l25.479-50.959c2.111-4.223 2.111-9.193 0-13.416l-4.146-8.292z" fill="#8bb9ff"/><path d="m512 169v94h-233.33l-3.793-8.53c-1.822-4.096-1.715-8.793.29-12.803l25.479-50.959c2.111-4.223 2.111-9.193 0-13.416l-4.146-8.292z" fill="#6e75e2"/></g></svg>