<svg id="Capa_1" enable-background="new 0 0 512 512" height="512" viewBox="0 0 512 512" width="512" xmlns="http://www.w3.org/2000/svg"><g><path d="m298.49 122.298 98.06 95.296c25.604 24.883 29.59 64.58 9.444 94.056l-46.348 67.813c-5.561 8.136-8.536 17.762-8.536 27.617v51.651h-73.419v-221.214-98.687z" fill="#f1d0a5"/><path d="m396.55 217.595-98.061-95.296-17.291 13.743 83.919 81.553c25.604 24.883 29.59 64.58 9.444 94.057l-46.348 67.813c-5.561 8.136-8.536 17.762-8.536 27.617v51.652h31.433v-51.652c0-9.855 2.975-19.481 8.536-27.617l46.348-67.813c20.147-29.477 16.161-69.175-9.444-94.057z" fill="#f1b986"/><g><path d="m342.274 280.321c-2.028 0-4.052-.793-5.568-2.37l-85.283-88.662c-2.957-3.075-2.863-7.965.212-10.923s7.965-2.863 10.923.212l85.283 88.662c2.957 3.075 2.863 7.965-.212 10.923-1.498 1.442-3.429 2.158-5.355 2.158z" fill="#f1b986"/></g><circle cx="230.231" cy="137.029" fill="#f6e266" r="137.029"/><path d="m230.231 0c-4.925 0-9.788.266-14.578.772 68.824 7.279 122.45 65.502 122.45 136.256s-53.626 128.977-122.45 136.256c4.791.507 9.653.772 14.578.772 75.679 0 137.029-61.35 137.029-137.029s-61.35-137.027-137.029-137.027z" fill="#ecbe6b"/><g><path d="m230.231 247.774c-61.065 0-110.745-49.68-110.745-110.746 0-61.065 49.68-110.745 110.745-110.745 61.066 0 110.746 49.68 110.746 110.745-.001 61.066-49.681 110.746-110.746 110.746zm0-206.041c-52.546 0-95.295 42.749-95.295 95.295s42.749 95.296 95.295 95.296 95.296-42.75 95.296-95.296-42.75-95.295-95.296-95.295z" fill="#eab14d"/></g><path d="m251.104 458.733-1.171-56.425c-.187-8.03-1.63-15.982-4.279-23.566-7.439-21.302-3.226-44.942 11.114-62.363 3.019-3.667 3.491-8.807 1.19-12.962l-45.731-88.401c-4.695-9.075-2.91-20.153 4.398-27.293 9.229-9.018 24.038-8.788 32.983.511l85.283 88.662-22.112 88.589-11.508 93.248z" fill="#f1d0a5"/><path d="m375.488 512h-143.59c-6.35 0-11.497-5.148-11.497-11.497v-30.273c0-6.35 5.148-11.497 11.497-11.497h143.59c6.35 0 11.497 5.148 11.497 11.497v30.272c0 6.35-5.147 11.498-11.497 11.498z" fill="#78c2a4"/><path d="m375.215 458.733h-25.98c6.501 0 11.77 5.028 11.77 11.231v30.805c0 6.203-5.27 11.231-11.77 11.231h25.98c6.5 0 11.77-5.028 11.77-11.231v-30.805c0-6.203-5.27-11.231-11.77-11.231z" fill="#66b394"/><g><path d="m265.84 144.753h-71.218c-4.267 0-7.725-3.458-7.725-7.725s3.458-7.725 7.725-7.725h71.218c4.267 0 7.725 3.458 7.725 7.725s-3.458 7.725-7.725 7.725z" fill="#eab14d"/></g></g></svg>