<svg id="Capa_1" enable-background="new 0 0 512 512" height="512" viewBox="0 0 512 512" width="512" xmlns="http://www.w3.org/2000/svg"><g><g><path d="m446 512h-380c-8.284 0-15-6.716-15-15v-52c0-74.439 60.561-135 135-135h140c74.439 0 135 60.561 135 135v52c0 8.284-6.716 15-15 15z" fill="#00429b"/><path d="m326 310h-70v202h190c8.284 0 15-6.716 15-15v-52c0-74.439-60.561-135-135-135z" fill="#00337a"/></g><path d="m306 256.513h-100c-2.762 0-5 2.238-5 5v48.487l50.161 188.26c.574 2.203 2.563 3.74 4.839 3.74s4.265-1.537 4.839-3.74l50.161-188.26v-48.487c0-2.762-2.238-5-5-5z" fill="#f6f9f9"/><path d="m306 256.513h-50v245.487c2.276 0 4.265-1.537 4.839-3.74l50.161-188.26v-48.487c0-2.762-2.238-5-5-5z" fill="#dadfe7"/><g><path d="m306 256.513h-100c-2.761 0-5 2.239-5 5v68.487c19.814 49.716 90.186 49.716 110 0v-68.487c0-2.762-2.239-5-5-5z" fill="#ffbe8f"/><path d="m311 330v-68.487c0-2.761-2.239-5-5-5h-50v110.774c22.546 0 45.093-12.429 55-37.287z" fill="#f0a578"/></g><path d="m368 356-39.745-52.994c-4.958-6.61-15.338-4.697-17.613 3.246l-54.642 190.748-54.641-190.748c-2.275-7.943-12.656-9.856-17.613-3.246l-39.746 52.994c-5.167 6.889-3.485 16.704 3.68 21.481l17.519 11.679-11.68 17.519c-4.112 6.168-3.102 14.416 2.378 19.409l90 82c2.763 2.517 6.366 3.912 10.103 3.912 3.737 0 7.34-1.395 10.103-3.912l90-82c5.48-4.993 6.491-13.24 2.378-19.409l-11.68-17.519 17.519-11.679c7.165-4.777 8.847-14.592 3.68-21.481z" fill="#7dd5f4"/><path d="m266.103 508.088 90-82c5.48-4.993 6.491-13.24 2.378-19.409l-11.68-17.519 17.519-11.679c7.165-4.777 8.846-14.592 3.68-21.481l-39.745-52.994c-4.958-6.61-15.338-4.697-17.613 3.246l-54.642 190.748v15c3.737 0 7.34-1.395 10.103-3.912z" fill="#0fa7da"/><path d="m386 180h-45v-70h45c19.33 0 35 15.67 35 35 0 19.33-15.67 35-35 35z" fill="#f0a578"/><path d="m171 180h-45c-19.33 0-35-15.67-35-35 0-19.33 15.67-35 35-35h45z" fill="#ffbe8f"/><path d="m356 130h-45.857c-25.242 0-50.265-8.341-70.456-23.485l-2.86-2.145c-20.733 16.61-46.3 25.63-73.253 25.63h-7.574c-8.284 0-15-6.716-15-15v-30c0-46.869 38.131-85 85-85h60c46.869 0 85 38.131 85 85v30c0 8.284-6.716 15-15 15z" fill="#9d5e4a"/><path d="m286 0h-30v116.74c16.655 8.624 35.336 13.26 54.143 13.26h45.857c8.284 0 15-6.716 15-15v-30c0-46.869-38.131-85-85-85z" fill="#7d4a3b"/><g><path d="m255.328 289.998c-63.457-.364-114.328-52.805-114.328-116.263v-63.735h22.574c23.187 0 45.424-9.211 61.819-25.606 5.279-5.279 13.636-5.873 19.607-1.394l12.686 9.515c15.034 11.275 33.663 17.485 52.457 17.485h60.857v65c0 63.635-51.954 115.364-115.672 114.998z" fill="#ffd2aa"/><path d="m257.687 92.515-1.687-1.265v198.744c63.41-.001 115-51.583 115-114.993v-65h-60.857c-18.794-.001-37.423-6.211-52.456-17.486z" fill="#ffbe8f"/></g><path d="m256 250.001c-13.445 0-26.09-5.241-35.606-14.758-5.858-5.857-5.858-15.355 0-21.213 5.857-5.857 15.355-5.857 21.213 0 3.851 3.85 8.962 5.971 14.394 5.971s10.543-2.121 14.394-5.971c5.857-5.857 15.355-5.857 21.213 0s5.858 15.355 0 21.213c-9.518 9.517-22.163 14.758-35.608 14.758z" fill="#ffbe8f"/><path d="m291.606 235.243c5.858-5.857 5.858-15.355 0-21.213-5.857-5.857-15.355-5.857-21.213 0-3.851 3.85-8.962 5.971-14.394 5.971v30c13.446 0 26.091-5.241 35.607-14.758z" fill="#f0a578"/></g></svg>